<svg xmlns="http://www.w3.org/2000/svg" xmlns:xlink="http://www.w3.org/1999/xlink" width="500" zoomAndPan="magnify" viewBox="0 0 375 374.999991" height="500" preserveAspectRatio="xMidYMid meet" version="1.0"><defs><g/><clipPath id="1adcae1c2a"><path d="M 112.8125 113 L 262.0625 113 L 262.0625 262.5 L 112.8125 262.5 Z M 112.8125 113 " clip-rule="nonzero"/></clipPath></defs><g clip-path="url(#1adcae1c2a)"><path fill="#ffffff" d="M 237.738281 167.503906 C 237.457031 165.589844 220.335938 160.945312 212.425781 165.101562 C 203.863281 169.597656 197.597656 177.214844 188.898438 181.488281 C 182.273438 184.738281 175.144531 186.136719 167.996094 187.464844 C 161.292969 188.707031 154.566406 189.886719 148.296875 192.78125 C 136.277344 198.328125 128.144531 209.574219 118.164062 217.894531 L 116.15625 219.570312 L 112.804688 215.550781 L 114.8125 213.875 C 125.140625 205.265625 133.667969 193.769531 146.105469 188.027344 C 152.773438 184.949219 159.910156 183.640625 167.039062 182.316406 C 173.722656 181.078125 180.402344 179.828125 186.59375 176.789062 C 195.25 172.539062 201.472656 164.941406 209.992188 160.46875 C 218.792969 155.84375 228.421875 155.679688 238.101562 156.425781 C 238.105469 156.210938 217.632812 149.714844 208.0625 154.589844 C 197.914062 159.757812 189.191406 167.738281 177.875 170.460938 C 172.640625 171.722656 167.328125 171.484375 162.003906 170.914062 C 157.085938 170.390625 152.160156 169.578125 147.292969 169.65625 C 136.867188 169.816406 126.0625 175.171875 118.359375 182.039062 L 116.40625 183.78125 L 112.921875 179.875 L 114.875 178.136719 C 123.476562 170.46875 135.578125 164.601562 147.210938 164.421875 C 152.292969 164.34375 157.429688 165.164062 162.5625 165.710938 C 167.285156 166.214844 172.003906 166.492188 176.652344 165.375 C 187.5625 162.75 195.898438 154.910156 205.6875 149.925781 C 215.6875 144.832031 225.835938 143.3125 236.640625 145.230469 C 223.378906 139.261719 211.390625 140.621094 203.328125 145.140625 C 196.300781 149.082031 188.347656 152.96875 180.1875 153.273438 C 172.269531 153.574219 164.367188 152.144531 156.710938 150.238281 C 151.0625 148.832031 145.246094 146.628906 139.351562 147.496094 C 134.167969 148.257812 129.46875 150.871094 125.464844 154.242188 C 122.90625 156.398438 120.601562 158.804688 118.617188 161.519531 L 117.074219 163.632812 L 112.847656 160.546875 L 114.390625 158.433594 C 116.625 155.375 119.214844 152.664062 122.09375 150.242188 C 126.835938 146.242188 132.445312 143.222656 138.589844 142.316406 C 145.160156 141.351562 151.679688 143.589844 157.976562 145.160156 C 165.15625 146.949219 172.5625 148.324219 179.992188 148.046875 C 187.335938 147.769531 194.441406 144.125 200.769531 140.578125 C 208.121094 136.457031 215.492188 131.992188 222.105469 126.683594 C 219.503906 125.195312 201.136719 131.5625 195.421875 134.425781 C 184.882812 139.707031 173.386719 142.570312 161.234375 139.292969 C 153.046875 137.082031 145.984375 131.820312 138.710938 127.859375 C 132.246094 124.339844 125.59375 121.894531 117.480469 124.726562 L 115.007812 125.585938 L 113.285156 120.644531 L 115.753906 119.785156 C 125.46875 116.394531 133.476562 119.050781 141.210938 123.265625 C 148.136719 127.035156 154.808594 132.136719 162.597656 134.238281 C 179.117188 138.699219 185.828125 118.40625 177.058594 119.152344 L 174.449219 119.371094 L 174.007812 114.15625 L 176.613281 113.9375 C 192.601562 112.582031 215.820312 114.9375 229.015625 124.992188 C 239.804688 133.210938 243.351562 145.691406 243.34375 155.789062 C 243.339844 159.542969 242.234375 163.550781 243.007812 167.285156 C 243.65625 170.398438 245.644531 172.648438 248.203125 174.371094 C 251.65625 176.703125 256.308594 177.339844 258.773438 178.390625 C 261.132812 179.390625 262.160156 180.933594 262.160156 182.566406 C 262.160156 184.0625 261.605469 185.335938 260.609375 186.433594 C 259.589844 187.554688 257.992188 188.492188 256.191406 189.324219 C 254.507812 190.101562 252.621094 190.804688 251.210938 191.742188 C 250.578125 192.164062 249.953125 192.550781 250.035156 193.296875 C 250.140625 194.234375 250.566406 195.0625 250.792969 195.933594 C 251.0625 196.976562 251.164062 198.046875 250.914062 199.210938 C 250.773438 199.855469 250.425781 200.527344 249.875 201.15625 C 249.640625 201.421875 249.246094 201.796875 248.886719 202.125 C 249.292969 202.550781 249.792969 203.085938 250.082031 203.4375 C 251.074219 204.632812 251.421875 205.914062 251.175781 207.0625 C 251.035156 207.714844 250.640625 208.511719 250.003906 209.292969 C 249.097656 210.398438 247.644531 211.585938 246.855469 212.160156 C 246.15625 212.671875 245.726562 213.136719 245.566406 213.640625 C 245.332031 214.367188 245.667969 215.042969 245.898438 215.613281 C 246.320312 216.660156 246.695312 217.578125 246.765625 218.234375 C 247.019531 220.773438 246.53125 222.652344 245.710938 224.09375 C 243.964844 227.160156 240.398438 228.222656 238.011719 229.074219 C 233.96875 230.519531 230.101562 231.273438 226.507812 232.449219 C 223.34375 233.484375 220.40625 234.863281 217.820312 237.628906 C 214.15625 241.554688 211.242188 248.089844 209.078125 259.632812 L 208.59375 262.203125 L 203.453125 261.242188 L 203.933594 258.667969 C 204.421875 256.070312 204.953125 253.699219 205.523438 251.539062 C 198 257.117188 187.476562 261.585938 175.441406 262.222656 L 172.828125 262.359375 L 172.550781 257.132812 L 175.164062 256.996094 C 189.671875 256.226562 201.78125 249.355469 208.179688 242.101562 L 209.542969 240.558594 C 210.921875 237.863281 212.414062 235.75 213.996094 234.058594 C 217.246094 230.578125 220.898438 228.777344 224.878906 227.472656 C 228.429688 226.3125 232.257812 225.574219 236.253906 224.144531 C 237.03125 223.867188 237.996094 223.597656 238.949219 223.191406 C 239.820312 222.820312 240.734375 222.347656 241.222656 221.394531 C 241.550781 220.75 241.664062 219.921875 241.566406 218.851562 C 241.496094 218.6875 226.480469 215.554688 220.296875 219.023438 C 215.53125 221.695312 211.648438 225.394531 207.808594 229.152344 C 203.6875 233.1875 199.621094 237.292969 194.769531 240.496094 C 183.859375 247.699219 168.433594 251.492188 155.476562 249.308594 L 152.898438 248.875 L 153.769531 243.714844 L 156.347656 244.148438 C 168.070312 246.125 182.015625 242.644531 191.886719 236.128906 C 196.457031 233.113281 200.265625 229.214844 204.148438 225.414062 C 208.316406 221.332031 212.566406 217.359375 217.738281 214.457031 C 224.722656 210.539062 232.460938 209.738281 240.3125 209.441406 L 242.152344 209.371094 C 242.589844 208.886719 243.128906 208.402344 243.777344 207.929688 C 244.164062 207.648438 244.996094 206.851562 245.558594 206.300781 C 242.261719 204.097656 226.875 202.921875 219.507812 207.195312 C 209.886719 212.773438 202.398438 221.21875 192.316406 226.136719 C 182.671875 230.839844 172.777344 231.652344 162.230469 231.984375 L 159.613281 232.066406 L 159.449219 226.835938 L 162.0625 226.753906 C 171.859375 226.445312 181.066406 225.800781 190.023438 221.433594 C 199.988281 216.570312 207.367188 208.183594 216.882812 202.667969 C 225.234375 197.824219 234.3125 196.039062 243.859375 195.589844 L 245.1875 195.523438 C 245.027344 194.988281 244.898438 194.441406 244.835938 193.871094 C 244.449219 190.40625 246.792969 188.007812 250.246094 186.28125 C 251.96875 185.421875 253.957031 184.699219 255.507812 183.808594 C 255.878906 183.597656 256.21875 183.382812 256.5 183.136719 C 256.242188 183.027344 255.957031 182.914062 255.703125 182.832031 C 254.222656 182.34375 252.421875 181.730469 250.492188 181.199219 C 245.6875 179.867188 238.921875 182.074219 235.808594 183.523438 C 223.832031 189.085938 216.59375 196.6875 204.566406 202.773438 C 194.527344 207.851562 182.828125 206.714844 171.859375 207.578125 C 162.417969 208.324219 153.902344 213.492188 147.28125 220.039062 L 145.421875 221.878906 L 141.742188 218.160156 L 143.601562 216.320312 C 151.085938 208.917969 160.773438 203.207031 171.445312 202.363281 C 181.75 201.550781 192.777344 202.871094 202.203125 198.101562 C 216.792969 190.722656 224.535156 181.261719 241.636719 175.609375 C 240.789062 174.683594 227.585938 173.738281 224.523438 175.804688 C 214.980469 182.238281 212.925781 185.964844 205.960938 189.945312 C 196.558594 195.316406 192.777344 194.515625 186.257812 195.375 L 183.664062 195.714844 L 182.984375 190.527344 L 185.578125 190.183594 C 191.453125 189.414062 194.890625 190.242188 203.363281 185.402344 C 210.214844 181.488281 212.210938 177.792969 221.597656 171.464844 C 224.878906 169.253906 228.25 168.398438 231.578125 167.996094 C 233.675781 167.742188 235.746094 167.6875 237.738281 167.503906 Z M 237.738281 167.503906 " fill-opacity="1" fill-rule="evenodd"/></g><g fill="#ffffff" fill-opacity="1"><g transform="translate(249.652927, 179.449983)"><g><path d="M 1.09375 -2.53125 C 1.09375 -2.945312 1.164062 -3.335938 1.3125 -3.703125 C 1.46875 -4.066406 1.679688 -4.390625 1.953125 -4.671875 C 2.234375 -4.953125 2.5625 -5.171875 2.9375 -5.328125 C 3.3125 -5.492188 3.710938 -5.578125 4.140625 -5.578125 C 4.546875 -5.578125 4.929688 -5.492188 5.296875 -5.328125 C 5.671875 -5.171875 5.992188 -4.953125 6.265625 -4.671875 C 6.546875 -4.398438 6.765625 -4.078125 6.921875 -3.703125 C 7.078125 -3.328125 7.15625 -2.9375 7.15625 -2.53125 C 7.15625 -2.113281 7.070312 -1.71875 6.90625 -1.34375 C 6.75 -0.96875 6.535156 -0.644531 6.265625 -0.375 C 5.992188 -0.101562 5.675781 0.109375 5.3125 0.265625 C 4.945312 0.429688 4.554688 0.515625 4.140625 0.515625 C 3.703125 0.515625 3.296875 0.429688 2.921875 0.265625 C 2.554688 0.109375 2.234375 -0.101562 1.953125 -0.375 C 1.679688 -0.644531 1.46875 -0.960938 1.3125 -1.328125 C 1.164062 -1.703125 1.09375 -2.101562 1.09375 -2.53125 Z M 1.09375 -2.53125 "/></g></g></g></svg>